<svg width="216" height="28" viewBox="0 0 216 28" fill="none" xmlns="http://www.w3.org/2000/svg">
<path d="M118.821 0.842285V22.316H117.558V6.31597C117.558 4.37913 117.642 2.94755 117.727 2.10544L117.558 2.5265L117.305 3.20018C117.053 3.87386 116.884 4.37913 116.716 4.63176L109.137 22.316H107.874L100.295 4.80018C100.127 4.37913 99.8739 3.70544 99.4528 2.69492L99.2844 2.18965C99.3686 4.1265 99.3686 5.55807 99.3686 6.31597V22.4002H98.1055V0.842285H99.9581L107.453 18.1897L107.79 19.0318C108.127 19.7897 108.295 20.4633 108.463 20.8844C108.969 19.4528 109.305 18.6107 109.558 18.1897L116.969 0.842285H118.821ZM136.421 17.0107C136.253 18.1054 135.916 19.0318 135.411 19.7897C134.148 21.8107 132.295 22.737 129.853 22.737C127.579 22.737 125.811 21.9791 124.548 20.2949C123.369 18.7791 122.779 16.9265 122.779 14.6528C122.779 12.1265 123.453 10.1054 124.8 8.58965C126.063 7.15807 127.748 6.40018 129.769 6.40018C131.369 6.40018 132.716 6.90544 133.895 7.83176C135.158 8.9265 136 10.3581 136.337 12.2949C136.421 12.9686 136.505 13.8107 136.505 14.8212H123.958C123.958 16.0002 124.127 17.0107 124.379 17.8528C124.8 19.0318 125.39 19.9581 126.232 20.6318C127.158 21.3897 128.337 21.8107 129.684 21.8107C131.453 21.8107 132.8 21.137 133.895 19.8739C134.484 19.2002 134.821 18.2739 135.074 17.0949L136.421 17.0107ZM135.327 13.7265C135.242 12.2107 134.905 10.9475 134.316 9.93702C133.305 8.25281 131.79 7.49492 129.853 7.49492C128.505 7.49492 127.242 7.91597 126.232 8.84228C125.053 9.85281 124.295 11.537 124.127 13.8107L135.327 13.7265ZM153.179 0.842285V22.316H152V18.5265C151.748 19.3686 151.327 20.1265 150.821 20.716C149.727 22.0633 148.127 22.737 146.105 22.737C143.748 22.737 141.979 21.8949 140.8 20.2107C139.79 18.7791 139.2 16.9265 139.2 14.6528C139.2 12.0423 139.874 10.0212 141.137 8.50544C142.4 7.07386 144.084 6.40018 146.021 6.40018C147.958 6.40018 149.474 7.07386 150.653 8.33702C151.074 8.84228 151.495 9.51597 151.916 10.4423V0.842285H153.179ZM146.105 7.49492C144.421 7.49492 143.074 8.08439 142.063 9.34755C140.969 10.6107 140.463 12.3791 140.463 14.6528C140.463 16.5897 140.884 18.1054 141.727 19.3686C142.737 20.8844 144.253 21.7265 146.19 21.7265C148.042 21.7265 149.474 21.0528 150.569 19.7054C151.579 18.4423 152 16.7581 152 14.6528C152 12.5475 151.495 10.7791 150.569 9.60018C149.39 8.1686 147.958 7.49492 146.105 7.49492ZM159.327 0.842285V3.87386H158.148V0.842285H159.327ZM159.327 6.90544V22.316H158.148V6.90544H159.327ZM176.927 16.9265C176.758 18.2739 176.337 19.3686 175.663 20.2949C174.484 21.9791 172.716 22.8212 170.358 22.8212C167.832 22.8212 165.979 21.8949 164.716 19.9581C163.79 18.5265 163.284 16.7581 163.284 14.737C163.284 12.1265 163.958 10.1054 165.305 8.67386C166.653 7.24228 168.337 6.48439 170.527 6.48439C172.716 6.48439 174.4 7.15807 175.579 8.58965C176.253 9.43176 176.674 10.4423 176.758 11.7054H175.579C175.327 10.6949 174.99 9.85281 174.484 9.26334C173.558 8.1686 172.211 7.57913 170.527 7.57913C168.421 7.57913 166.905 8.33702 165.811 9.93702C164.969 11.2002 164.463 12.8002 164.463 14.737C164.463 16.7581 164.969 18.3581 165.895 19.7054C166.99 21.137 168.421 21.8949 170.274 21.8949C172.211 21.8949 173.727 21.137 174.653 19.7054C175.158 18.9475 175.495 18.1054 175.579 17.0949H176.927V16.9265ZM193.179 21.2212V22.2318C192.842 22.4002 192.505 22.4002 192.169 22.4002C191.327 22.4002 190.737 22.1475 190.484 21.6423C190.316 21.3054 190.232 20.3791 190.232 19.0318C189.727 19.9581 189.221 20.716 188.632 21.2212C187.453 22.2318 186.021 22.8212 184.169 22.8212C182.653 22.8212 181.474 22.4844 180.548 21.8107C179.537 21.0528 179.032 19.9581 179.032 18.5265C179.032 16.5054 179.958 15.1581 181.895 14.4002C182.569 14.1475 183.495 13.9791 184.505 13.8107C184.674 13.8107 185.769 13.7265 187.874 13.5581C188.8 13.4739 189.39 13.2212 189.727 12.8844C189.979 12.6318 190.063 12.2107 190.063 11.537C190.063 10.1897 189.811 9.26334 189.221 8.75807C188.463 8.00018 187.284 7.57913 185.684 7.57913C182.821 7.57913 181.305 9.0107 181.053 11.7054H179.874C179.958 10.1054 180.463 8.84228 181.474 8.00018C182.484 6.98965 184 6.5686 185.853 6.5686C187.369 6.5686 188.716 6.90544 189.727 7.57913C190.737 8.25281 191.242 9.26334 191.327 10.6107V19.7054C191.327 20.2949 191.327 20.716 191.411 20.8844C191.495 21.3897 191.832 21.5581 192.421 21.5581C192.674 21.3897 192.927 21.3054 193.179 21.2212ZM190.148 13.5581C189.727 14.0633 188.632 14.4002 186.695 14.5686C185.095 14.737 184 14.9054 183.411 14.9897C181.305 15.4949 180.295 16.5897 180.295 18.2739C180.295 19.6212 180.8 20.5475 181.979 21.2212C182.569 21.5581 183.411 21.7265 184.337 21.7265C186.105 21.7265 187.537 21.2212 188.632 20.1265C189.642 19.0318 190.232 17.7686 190.232 16.2528V13.5581H190.148Z" fill="#171717"/>
<path d="M194.19 3.70544H195.116C195.2 3.70544 195.369 3.70544 195.369 3.62123C195.453 3.62123 195.537 3.53702 195.621 3.45281C195.705 3.3686 195.705 3.28439 195.705 3.11597C195.705 3.03176 195.705 2.86334 195.621 2.86334C195.537 2.77913 195.537 2.69492 195.453 2.69492C195.369 2.69492 195.284 2.61071 195.2 2.61071H194.19V3.70544ZM193.684 2.10544H195.032C195.453 2.10544 195.79 2.18965 195.958 2.35807C196.127 2.5265 196.295 2.77913 196.295 3.11597C196.295 3.45281 196.211 3.70544 196.042 3.78965C195.874 3.95807 195.621 4.04229 195.369 4.04229L196.379 5.64228H195.79L194.863 4.1265H194.274V5.64228H193.684V2.10544ZM192.337 3.87386C192.337 4.21071 192.421 4.63176 192.505 4.88439C192.59 5.22123 192.842 5.47386 193.011 5.7265C193.263 5.97913 193.516 6.14755 193.769 6.31597C194.105 6.48439 194.442 6.48439 194.779 6.48439C195.116 6.48439 195.453 6.40018 195.79 6.31597C196.127 6.14755 196.379 5.97913 196.548 5.7265C196.8 5.47386 196.969 5.22123 197.053 4.88439C197.137 4.54755 197.221 4.21071 197.221 3.87386C197.221 3.53702 197.137 3.20018 197.053 2.86334C196.969 2.5265 196.716 2.27386 196.548 2.02123C196.295 1.7686 196.042 1.60018 195.79 1.43176C195.453 1.34755 195.2 1.26334 194.779 1.26334C194.442 1.26334 194.105 1.34755 193.769 1.43176C193.432 1.60018 193.179 1.7686 193.011 2.02123C192.758 2.27386 192.59 2.5265 192.505 2.86334C192.421 3.20018 192.337 3.53702 192.337 3.87386ZM191.748 3.87386C191.748 3.45281 191.832 3.03176 192 2.69492C192.169 2.35807 192.421 2.02123 192.674 1.7686C192.927 1.51597 193.263 1.26334 193.684 1.09492C194.021 0.926496 194.442 0.842285 194.863 0.842285C195.284 0.842285 195.621 0.926496 196.042 1.09492C196.379 1.26334 196.716 1.43176 196.969 1.7686C197.221 2.02123 197.474 2.35807 197.642 2.69492C197.811 3.03176 197.895 3.45281 197.895 3.87386C197.895 4.29492 197.811 4.71597 197.642 5.05281C197.474 5.38965 197.221 5.7265 196.969 5.97913C196.716 6.23176 196.379 6.48439 196.042 6.65281C195.705 6.82123 195.284 6.90544 194.863 6.90544C194.442 6.90544 194.021 6.82123 193.684 6.65281C193.348 6.48439 193.011 6.31597 192.674 5.97913C192.421 5.7265 192.169 5.38965 192 5.05281C191.832 4.71597 191.748 4.29492 191.748 3.87386Z" fill="#171717"/>
<path d="M40.8423 0.842285V22.316H35.537V17.516C35.537 13.4739 35.6212 9.68439 35.7897 5.97913C35.2844 8.00018 34.5265 10.8633 33.516 14.4844L30.9897 22.316H26.7791L24.2528 14.737C23.1581 11.0318 22.4002 8.08439 21.8949 5.97913C22.0633 9.93702 22.1475 13.5581 22.1475 16.7581V22.316H16.8423V6.06334C16.8423 3.20018 19.2002 0.926496 21.9791 0.926496H24.8423L27.116 8.33702C27.8739 11.0318 28.4633 13.4739 28.8002 15.7475C29.3897 12.6318 30.0633 10.1054 30.5686 8.1686L32.7581 0.842285H40.8423ZM59.2002 6.73702L53.5581 22.4002C52.9686 24.0002 52.4633 25.0949 51.9581 25.6844C51.2002 26.6949 50.1054 27.2844 48.8423 27.4528C48.4212 27.537 47.8318 27.537 47.0739 27.537H44.1265V23.4107H45.8949C46.6528 23.4107 47.2423 23.1581 47.4949 22.737C47.5791 22.5686 47.6633 22.316 47.8318 21.9791C47.916 21.6423 48.0002 21.3897 48.0002 21.2212C48.0002 21.137 48.0002 20.9686 47.916 20.8844L42.6107 6.65281H48.0844L50.1897 13.5581C50.4423 14.4002 50.7791 15.6633 51.0318 17.1791C51.3686 15.4949 51.7054 14.2318 51.9581 13.3897L53.9791 6.65281H59.2002V6.73702ZM75.4528 16.2528C75.2002 17.8528 74.6949 19.2002 73.7686 20.2107C72.337 21.8949 70.2318 22.8212 67.6212 22.8212C65.0107 22.8212 62.9054 21.9791 61.3897 20.2107C60.1265 18.6949 59.4528 16.9265 59.4528 14.737C59.4528 12.1265 60.2949 10.0212 61.9791 8.50544C63.4949 7.15807 65.3475 6.48439 67.7054 6.48439C70.4844 6.48439 72.5897 7.3265 73.937 9.09492C74.7791 10.1054 75.2002 11.2844 75.2844 12.5475H70.316C70.2318 11.9581 69.9791 11.4528 69.7265 11.116C69.2212 10.5265 68.5475 10.1897 67.7054 10.1897C66.5265 10.1897 65.6844 10.6949 65.1791 11.7054C64.7581 12.4633 64.5897 13.5581 64.5897 14.8212C64.5897 16.0844 64.8423 17.0107 65.2633 17.7686C65.7686 18.6949 66.6107 19.116 67.7054 19.116C69.3054 19.116 70.2318 18.1897 70.5686 16.4212H75.4528V16.2528ZM85.3896 6.31597C87.7475 6.31597 89.6844 7.07386 91.2002 8.50544C92.716 10.0212 93.4739 11.9581 93.4739 14.4002C93.4739 16.8423 92.716 18.8633 91.2002 20.3791C89.6844 21.8949 87.6633 22.6528 85.3054 22.6528C82.7791 22.6528 80.8423 21.8949 79.2423 20.2949C77.8107 18.7791 77.0528 16.8423 77.0528 14.4844C77.0528 12.0423 77.8107 10.1054 79.2423 8.67386C80.8423 7.15807 82.8633 6.31597 85.3896 6.31597ZM85.2212 10.1054C84.2949 10.1054 83.537 10.5265 82.9475 11.3686C82.4423 12.1265 82.1897 13.2212 82.1897 14.5686C82.1897 16.0002 82.4423 17.0949 82.9475 17.8528C83.4528 18.6949 84.2949 19.116 85.2212 19.116C86.2318 19.116 86.9896 18.6949 87.4949 17.937C88.0002 17.1791 88.2528 16.0844 88.2528 14.6528C88.2528 13.3054 88.0002 12.2107 87.5791 11.4528C87.0739 10.5265 86.2318 10.1054 85.2212 10.1054Z" fill="#F47B20"/>
</svg>
